<svg viewBox="0 0 330.0000305175781 200.00001525878906" xmlns="http://www.w3.org/2000/svg"><g><g><g><g><g><line x1="48.875" y1="177" x2="43.875" y2="177" style="visibility: inherit;" fill="rgb(0, 0, 0)" stroke="rgb(204, 204, 204)" stroke-width="1px"></line><line x1="48.875" y1="162.25" x2="43.875" y2="162.25" style="visibility: inherit;" fill="rgb(0, 0, 0)" stroke="rgb(204, 204, 204)" stroke-width="1px"></line><line x1="48.875" y1="147.5" x2="43.875" y2="147.5" style="visibility: inherit;" fill="rgb(0, 0, 0)" stroke="rgb(204, 204, 204)" stroke-width="1px"></line><line x1="48.875" y1="132.75" x2="43.875" y2="132.75" style="visibility: inherit;" fill="rgb(0, 0, 0)" stroke="rgb(204, 204, 204)" stroke-width="1px"></line><line x1="48.875" y1="118" x2="43.875" y2="118" style="visibility: inherit;" fill="rgb(0, 0, 0)" stroke="rgb(204, 204, 204)" stroke-width="1px"></line><line x1="48.875" y1="103.25" x2="43.875" y2="103.25" style="visibility: inherit;" fill="rgb(0, 0, 0)" stroke="rgb(204, 204, 204)" stroke-width="1px"></line><line x1="48.875" y1="88.50000000000001" x2="43.875" y2="88.50000000000001" style="visibility: inherit;" fill="rgb(0, 0, 0)" stroke="rgb(204, 204, 204)" stroke-width="1px"></line><line x1="48.875" y1="73.75000000000001" x2="43.875" y2="73.75000000000001" style="visibility: inherit;" fill="rgb(0, 0, 0)" stroke="rgb(204, 204, 204)" stroke-width="1px"></line><line x1="48.875" y1="59.00000000000003" x2="43.875" y2="59.00000000000003" style="visibility: inherit;" fill="rgb(0, 0, 0)" stroke="rgb(204, 204, 204)" stroke-width="1px"></line><line x1="48.875" y1="44.25000000000003" x2="43.875" y2="44.25000000000003" style="visibility: inherit;" fill="rgb(0, 0, 0)" stroke="rgb(204, 204, 204)" stroke-width="1px"></line><line x1="48.875" y1="29.5" x2="43.875" y2="29.5" style="visibility: inherit;" fill="rgb(0, 0, 0)" stroke="rgb(204, 204, 204)" stroke-width="1px"></line><line x1="48.875" y1="14.75" x2="43.875" y2="14.75" style="visibility: inherit;" fill="rgb(0, 0, 0)" stroke="rgb(204, 204, 204)" stroke-width="1px"></line><line x1="48.875" y1="0" x2="43.875" y2="0" style="visibility: inherit;" fill="rgb(0, 0, 0)" stroke="rgb(204, 204, 204)" stroke-width="1px"></line></g><g transform="translate(38.875, 0)"><text x="0" y="177" dx="0em" dy="0.3em" style="text-anchor: end; visibility: hidden; font-family: &quot;Helvetica Neue&quot;, sans-serif; font-size: 12px; font-weight: 200;" fill="rgb(50, 49, 63)" stroke="none" stroke-width="1px">-0.1</text><text x="0" y="162.25" dx="0em" dy="0.3em" style="text-anchor: end; visibility: inherit; font-family: &quot;Helvetica Neue&quot;, sans-serif; font-size: 12px; font-weight: 200;" fill="rgb(50, 49, 63)" stroke="none" stroke-width="1px">0</text><text x="0" y="147.5" dx="0em" dy="0.3em" style="text-anchor: end; visibility: hidden; font-family: &quot;Helvetica Neue&quot;, sans-serif; font-size: 12px; font-weight: 200;" fill="rgb(50, 49, 63)" stroke="none" stroke-width="1px">0.1</text><text x="0" y="132.75" dx="0em" dy="0.3em" style="text-anchor: end; visibility: inherit; font-family: &quot;Helvetica Neue&quot;, sans-serif; font-size: 12px; font-weight: 200;" fill="rgb(50, 49, 63)" stroke="none" stroke-width="1px">0.2</text><text x="0" y="118" dx="0em" dy="0.3em" style="text-anchor: end; visibility: hidden; font-family: &quot;Helvetica Neue&quot;, sans-serif; font-size: 12px; font-weight: 200;" fill="rgb(50, 49, 63)" stroke="none" stroke-width="1px">0.3</text><text x="0" y="103.25" dx="0em" dy="0.3em" style="text-anchor: end; visibility: inherit; font-family: &quot;Helvetica Neue&quot;, sans-serif; font-size: 12px; font-weight: 200;" fill="rgb(50, 49, 63)" stroke="none" stroke-width="1px">0.4</text><text x="0" y="88.50000000000001" dx="0em" dy="0.3em" style="text-anchor: end; visibility: hidden; font-family: &quot;Helvetica Neue&quot;, sans-serif; font-size: 12px; font-weight: 200;" fill="rgb(50, 49, 63)" stroke="none" stroke-width="1px">0.5</text><text x="0" y="73.75000000000001" dx="0em" dy="0.3em" style="text-anchor: end; visibility: inherit; font-family: &quot;Helvetica Neue&quot;, sans-serif; font-size: 12px; font-weight: 200;" fill="rgb(50, 49, 63)" stroke="none" stroke-width="1px">0.6</text><text x="0" y="59.00000000000003" dx="0em" dy="0.3em" style="text-anchor: end; visibility: hidden; font-family: &quot;Helvetica Neue&quot;, sans-serif; font-size: 12px; font-weight: 200;" fill="rgb(50, 49, 63)" stroke="none" stroke-width="1px">0.7</text><text x="0" y="44.25000000000003" dx="0em" dy="0.3em" style="text-anchor: end; visibility: inherit; font-family: &quot;Helvetica Neue&quot;, sans-serif; font-size: 12px; font-weight: 200;" fill="rgb(50, 49, 63)" stroke="none" stroke-width="1px">0.8</text><text x="0" y="29.5" dx="0em" dy="0.3em" style="text-anchor: end; visibility: hidden; font-family: &quot;Helvetica Neue&quot;, sans-serif; font-size: 12px; font-weight: 200;" fill="rgb(50, 49, 63)" stroke="none" stroke-width="1px">0.9</text><text x="0" y="14.75" dx="0em" dy="0.3em" style="text-anchor: end; visibility: inherit; font-family: &quot;Helvetica Neue&quot;, sans-serif; font-size: 12px; font-weight: 200;" fill="rgb(50, 49, 63)" stroke="none" stroke-width="1px">1</text><text x="0" y="0" dx="0em" dy="0.3em" style="text-anchor: end; visibility: hidden; font-family: &quot;Helvetica Neue&quot;, sans-serif; font-size: 12px; font-weight: 200;" fill="rgb(50, 49, 63)" stroke="none" stroke-width="1px">1.1</text></g><line x1="48.875" y1="0" x2="48.875" y2="177" fill="rgb(0, 0, 0)" stroke="rgb(204, 204, 204)" stroke-width="1px"></line></g></g><g transform="translate(48, 0)" clip-path="url(#clip_0)"><clipPath id="clip_0"><rect width="281" height="176"></rect></clipPath><g><g><g><line x1="0" y1="0" x2="0" y2="177" fill="rgb(0, 0, 0)" stroke="rgb(60, 60, 60)" stroke-width="1px" opacity="0.25"></line><line x1="25.556818181818183" y1="0" x2="25.556818181818183" y2="177" fill="rgb(0, 0, 0)" stroke="rgb(60, 60, 60)" stroke-width="1px" opacity="0.25"></line><line x1="51.11363636363637" y1="0" x2="51.11363636363637" y2="177" fill="rgb(0, 0, 0)" stroke="rgb(60, 60, 60)" stroke-width="1px" opacity="0.25"></line><line x1="76.67045454545455" y1="0" x2="76.67045454545455" y2="177" fill="rgb(0, 0, 0)" stroke="rgb(60, 60, 60)" stroke-width="1px" opacity="0.25"></line><line x1="102.22727272727273" y1="0" x2="102.22727272727273" y2="177" fill="rgb(0, 0, 0)" stroke="rgb(60, 60, 60)" stroke-width="1px" opacity="0.25"></line><line x1="127.7840909090909" y1="0" x2="127.7840909090909" y2="177" fill="rgb(0, 0, 0)" stroke="rgb(60, 60, 60)" stroke-width="1px" opacity="0.25"></line><line x1="153.3409090909091" y1="0" x2="153.3409090909091" y2="177" fill="rgb(0, 0, 0)" stroke="rgb(60, 60, 60)" stroke-width="1px" opacity="0.25"></line><line x1="178.89772727272728" y1="0" x2="178.89772727272728" y2="177" fill="rgb(0, 0, 0)" stroke="rgb(60, 60, 60)" stroke-width="1px" opacity="0.25"></line><line x1="204.45454545454547" y1="0" x2="204.45454545454547" y2="177" fill="rgb(0, 0, 0)" stroke="rgb(60, 60, 60)" stroke-width="1px" opacity="0.25"></line><line x1="230.01136363636365" y1="0" x2="230.01136363636365" y2="177" fill="rgb(0, 0, 0)" stroke="rgb(60, 60, 60)" stroke-width="1px" opacity="0.25"></line><line x1="255.5681818181818" y1="0" x2="255.5681818181818" y2="177" fill="rgb(0, 0, 0)" stroke="rgb(60, 60, 60)" stroke-width="1px" opacity="0.25"></line><line x1="281.125" y1="0" x2="281.125" y2="177" fill="rgb(0, 0, 0)" stroke="rgb(60, 60, 60)" stroke-width="1px" opacity="0.25"></line></g><g><line x1="0" y1="177" x2="281.125" y2="177" fill="rgb(0, 0, 0)" stroke="rgb(60, 60, 60)" stroke-width="1px" opacity="0.25"></line><line x1="0" y1="162.25" x2="281.125" y2="162.25" fill="rgb(0, 0, 0)" stroke="rgb(60, 60, 60)" stroke-width="1px" opacity="0.25"></line><line x1="0" y1="147.5" x2="281.125" y2="147.5" fill="rgb(0, 0, 0)" stroke="rgb(60, 60, 60)" stroke-width="1px" opacity="0.25"></line><line x1="0" y1="132.75" x2="281.125" y2="132.75" fill="rgb(0, 0, 0)" stroke="rgb(60, 60, 60)" stroke-width="1px" opacity="0.25"></line><line x1="0" y1="118" x2="281.125" y2="118" fill="rgb(0, 0, 0)" stroke="rgb(60, 60, 60)" stroke-width="1px" opacity="0.25"></line><line x1="0" y1="103.25" x2="281.125" y2="103.25" fill="rgb(0, 0, 0)" stroke="rgb(60, 60, 60)" stroke-width="1px" opacity="0.25"></line><line x1="0" y1="88.50000000000001" x2="281.125" y2="88.50000000000001" fill="rgb(0, 0, 0)" stroke="rgb(60, 60, 60)" stroke-width="1px" opacity="0.25"></line><line x1="0" y1="73.75000000000001" x2="281.125" y2="73.75000000000001" fill="rgb(0, 0, 0)" stroke="rgb(60, 60, 60)" stroke-width="1px" opacity="0.25"></line><line x1="0" y1="59.00000000000003" x2="281.125" y2="59.00000000000003" fill="rgb(0, 0, 0)" stroke="rgb(60, 60, 60)" stroke-width="1px" opacity="0.25"></line><line x1="0" y1="44.25000000000003" x2="281.125" y2="44.25000000000003" fill="rgb(0, 0, 0)" stroke="rgb(60, 60, 60)" stroke-width="1px" opacity="0.25"></line><line x1="0" y1="29.5" x2="281.125" y2="29.5" fill="rgb(0, 0, 0)" stroke="rgb(60, 60, 60)" stroke-width="1px" opacity="0.25"></line><line x1="0" y1="14.75" x2="281.125" y2="14.75" fill="rgb(0, 0, 0)" stroke="rgb(60, 60, 60)" stroke-width="1px" opacity="0.25"></line><line x1="0" y1="0" x2="281.125" y2="0" fill="rgb(0, 0, 0)" stroke="rgb(60, 60, 60)" stroke-width="1px" opacity="0.25"></line></g></g></g><g><g><line x1="0" y1="162.25" x2="281.125" y2="162.25" fill="rgb(0, 0, 0)" stroke="rgb(153, 153, 153)" stroke-width="1.5px"></line></g></g><g><g><line x1="25.556818181818183" y1="0" x2="25.556818181818183" y2="177" fill="rgb(0, 0, 0)" stroke="rgb(153, 153, 153)" stroke-width="1.5px"></line></g></g><g><g><g><g><g><path stroke="rgb(51, 187, 238)" stroke-width="2px" d="M25.556818181818183,33.89663732051852L51.11363636363637,34.11824273318055L76.67045454545455,33.79412447798012L102.22727272727273,34.19428030456254L127.7840909090909,35.14168178187242L153.3409090909091,36.13176396213049L178.89772727272728,34.21490022289788L204.45454545454547,35.816416928675324L230.01136363636365,34.27657505748496L255.5681818181818,32.791904417675056" style="fill: none;" fill="none"></path></g><g><path stroke="rgb(204, 51, 17)" stroke-width="2px" d="M25.556818181818183,32.578587889671354L51.11363636363637,28.240929808467627L76.67045454545455,25.794005918867725L102.22727272727273,23.113735416137132L127.7840909090909,21.397334457539927L153.3409090909091,20.319738006273298L178.89772727272728,18.962631410431186L204.45454545454547,18.04523852751251L230.01136363636365,17.27194975624866L255.5681818181818,16.665442772608486" style="fill: none;" fill="none"></path></g><g><path stroke="rgb(255, 112, 67)" stroke-width="2px" d="M25.556818181818183,91.75020246207716L51.11363636363637,93.55997084081174L76.67045454545455,95.25969288969527L102.22727272727273,95.98241341152394L127.7840909090909,96.06910655882771L153.3409090909091,96.48851605966912L178.89772727272728,96.63000347601755L204.45454545454547,89.42770364111179L230.01136363636365,92.44358575038558L255.5681818181818,94.30489020118372" style="fill: none;" fill="none"></path></g><g><path stroke="rgb(187, 187, 187)" stroke-width="2px" d="M25.556818181818183,27.61565527319908L51.11363636363637,22.377728637307882L76.67045454545455,19.742061622288816L102.22727272727273,18.43484291357592L127.7840909090909,17.583490947068896L153.3409090909091,16.94954819465505L178.89772727272728,16.529380584759053L204.45454545454547,16.30091721513395L230.01136363636365,16.121345740569836L255.5681818181818,15.91200845920386" style="fill: none;" fill="none"></path></g><g><path stroke="rgb(0, 119, 187)" stroke-width="2px" d="M25.556818181818183,32.478362679481535L51.11363636363637,38.35088413581252L76.67045454545455,41.29430834918611L102.22727272727273,44.92841566901879L127.7840909090909,45.70554022574743L153.3409090909091,42.28807611493386L178.89772727272728,39.831892834018305L204.45454545454547,40.25414338262752L230.01136363636365,38.64038859383854L255.5681818181818,38.82412583574134" style="fill: none;" fill="none"></path></g><g><path stroke="rgb(255, 112, 67)" stroke-width="2px" d="M25.556818181818183,29.226318359375L51.11363636363637,24.323948364704847L76.67045454545455,21.66406160288929L102.22727272727273,19.92490832189867L127.7840909090909,18.776570985252732L153.3409090909091,18.227180543386652L178.89772727272728,17.507570088810837L204.45454545454547,17.272711391335577L230.01136363636365,16.835391533216438L255.5681818181818,16.441458032914085" style="fill: none;" fill="none"></path></g><g><path stroke="rgb(0, 153, 136)" stroke-width="2px" d="M25.556818181818183,24.38240757584572L51.11363636363637,26.635392274707556L76.67045454545455,25.54621406842253L102.22727272727273,25.907574885908303L127.7840909090909,26.912077598361662L153.3409090909091,27.63590660820907L178.89772727272728,26.321346817206972L204.45454545454547,28.05689525843576L230.01136363636365,26.906435781885364L255.5681818181818,27.293798776826605" style="fill: none;" fill="none"></path></g><g><path stroke="rgb(238, 51, 119)" stroke-width="2px" d="M25.556818181818183,34.52971777319911L51.11363636363637,27.650850586593208L76.67045454545455,24.943781968282195L102.22727272727273,23.370361730675512L127.7840909090909,22.093576822551427L153.3409090909091,21.36393805189914L178.89772727272728,20.61715736045511L204.45454545454547,20.0868040962107L230.01136363636365,19.634131498012778L255.5681818181818,19.35229308938682" style="fill: none;" fill="none"></path></g><g><path stroke="rgb(204, 51, 17)" stroke-width="2px" d="M25.556818181818183,48.90665492415428L51.11363636363637,39.78392990678549L76.67045454545455,38.40832162754879L102.22727272727273,36.90524130226936L127.7840909090909,35.44654393845511L153.3409090909091,33.77965788998583L178.89772727272728,33.65756530417647L204.45454545454547,32.98549392259511L230.01136363636365,32.11197925538073L255.5681818181818,32.23564481714874" style="fill: none;" fill="none"></path></g><g><path stroke="rgb(0, 119, 187)" stroke-width="2px" d="M25.556818181818183,42.589574217796354L51.11363636363637,39.08671411126852L76.67045454545455,36.79846163489381L102.22727272727273,34.9283876592184L127.7840909090909,33.168036350084634L153.3409090909091,31.44276136460803L178.89772727272728,29.773528995909885L204.45454545454547,27.750240958817358L230.01136363636365,25.90477188994811L255.5681818181818,23.976838077416716" style="fill: none;" fill="none"></path></g></g></g></g><g opacity="0.2"><g><g><g><path stroke="rgb(51, 187, 238)" stroke-width="2px" d="M25.556818181818183,33.89663732051852L51.11363636363637,34.25120598077777L76.67045454545455,33.4829709529877L102.22727272727273,34.66486355662349L127.7840909090909,36.378609150648145L153.3409090909091,37.50140404701236L178.89772727272728,31.47375440597537L204.45454545454547,38.151443660259275L230.01136363636365,32.00560739636424L255.5681818181818,30.587341547012358" style="fill: none;" fill="none"></path></g><g><path stroke="rgb(204, 51, 17)" stroke-width="2px" d="M25.556818181818183,32.578587889671354L51.11363636363637,25.638334959745407L76.67045454545455,23.444958984851837L102.22727272727273,19.96173730492592L127.7840909090909,19.156401365995407L153.3409090909091,18.82903417944908L178.89772727272728,17.021947264671326L204.45454545454547,16.707670897245407L230.01136363636365,16.131499022245407L255.5681818181818,15.764850586652784" style="fill: none;" fill="none"></path></g><g><path stroke="rgb(255, 112, 67)" stroke-width="2px" d="M25.556818181818183,91.75020246207716L51.11363636363637,94.6458318680525L76.67045454545455,96.89142605662347L102.22727272727273,96.83233274519445L127.7840909090909,96.18229313194753L153.3409090909091,97.0687103867531L178.89772727272728,96.83233274519445L204.45454545454547,78.92668133974078L230.01136363636365,96.89142605662347L255.5681818181818,97.0687103867531" style="fill: none;" fill="none"></path></g><g><path stroke="rgb(187, 187, 187)" stroke-width="2px" d="M25.556818181818183,27.61565527319908L51.11363636363637,19.234972655773163L76.67045454545455,17.211821287870407L102.22727272727273,16.89755371212962L127.7840909090909,16.471965819597273L153.3409090909091,16.07257714867592L178.89772727272728,15.928534179925947L204.45454545454547,15.967815428972244L230.01136363636365,15.856512695550919L255.5681818181818,15.601166993379621" style="fill: none;" fill="none"></path></g><g><path stroke="rgb(0, 119, 187)" stroke-width="2px" d="M25.556818181818183,32.478362679481535L51.11363636363637,41.87439700961116L76.67045454545455,44.11999559402469L102.22727272727273,49.20212587714198L127.7840909090909,46.72015404701236L153.3409090909091,37.56049296259883L178.89772727272728,36.31951144337657L204.45454545454547,40.869788736104994L230.01136363636365,36.260413736104994L255.5681818181818,39.096954226493864" style="fill: none;" fill="none"></path></g><g><path stroke="rgb(255, 112, 67)" stroke-width="2px" d="M25.556818181818183,29.226318359375L51.11363636363637,21.382526367902784L76.67045454545455,19.110570311546326L102.22727272727273,17.879664063453674L127.7840909090909,17.277301758527784L153.3409090909091,17.467175781726866L178.89772727272728,16.478515625L204.45454545454547,16.93028515577319L230.01136363636365,16.1904296875L255.5681818181818,15.856512695550919" style="fill: none;" fill="none"></path></g><g><path stroke="rgb(0, 153, 136)" stroke-width="2px" d="M25.556818181818183,24.38240757584572L51.11363636363637,27.987183094024658L76.67045454545455,24.50060299038887L102.22727272727273,26.332535207271576L127.7840909090909,28.223556339740753L153.3409090909091,28.637222707271576L178.89772727272728,24.441505283117294L204.45454545454547,30.587341547012358L230.01136363636365,25.20973151922226L255.5681818181818,27.868987679481506" style="fill: none;" fill="none"></path></g><g><path stroke="rgb(238, 51, 119)" stroke-width="2px" d="M25.556818181818183,34.52971777319911L51.11363636363637,23.523530274629593L76.67045454545455,22.344996094703674L102.22727272727273,21.52001953125003L127.7840909090909,20.426606446504593L153.3409090909091,20.35458496212962L178.89772727272728,19.54924902319911L204.45454545454547,19.31354394555092L230.01136363636365,18.966527342796326L255.5681818181818,18.933795899152756" style="fill: none;" fill="none"></path></g><g><path stroke="rgb(204, 51, 17)" stroke-width="2px" d="M25.556818181818183,48.90665492415428L51.11363636363637,34.31029489636424L76.67045454545455,37.087737679481535L102.22727272727273,35.13761883974078L127.7840909090909,33.542068660259275L153.3409090909091,31.47375440597537L178.89772727272728,33.4829709529877L204.45454545454547,32.00560739636424L230.01136363636365,30.823714792728452L255.5681818181818,32.41927376389506" style="fill: none;" fill="none"></path></g><g><path stroke="rgb(0, 119, 187)" stroke-width="2px" d="M25.556818181818183,42.589574217796354L51.11363636363637,36.984998047351866L76.67045454545455,34.60173925757411L102.22727272727273,32.72918066382411L127.7840909090909,30.86972168087962L153.3409090909091,29.05608496069908L178.89772727272728,27.386500000953674L204.45454545454547,24.800267577171326L230.01136363636365,23.183063477277756L255.5681818181818,21.114081054925947" style="fill: none;" fill="none"></path></g></g></g></g></g></g><g transform="translate(48, 177)" clip-path="url(#clip_1)"><clipPath id="clip_1"><rect width="281" height="22"></rect></clipPath><g><g><line x1="0" y1="0" x2="0" y2="5" style="visibility: inherit;" fill="rgb(0, 0, 0)" stroke="rgb(204, 204, 204)" stroke-width="1px"></line><line x1="25.556818181818183" y1="0" x2="25.556818181818183" y2="5" style="visibility: inherit;" fill="rgb(0, 0, 0)" stroke="rgb(204, 204, 204)" stroke-width="1px"></line><line x1="51.11363636363637" y1="0" x2="51.11363636363637" y2="5" style="visibility: inherit;" fill="rgb(0, 0, 0)" stroke="rgb(204, 204, 204)" stroke-width="1px"></line><line x1="76.67045454545455" y1="0" x2="76.67045454545455" y2="5" style="visibility: inherit;" fill="rgb(0, 0, 0)" stroke="rgb(204, 204, 204)" stroke-width="1px"></line><line x1="102.22727272727273" y1="0" x2="102.22727272727273" y2="5" style="visibility: inherit;" fill="rgb(0, 0, 0)" stroke="rgb(204, 204, 204)" stroke-width="1px"></line><line x1="127.7840909090909" y1="0" x2="127.7840909090909" y2="5" style="visibility: inherit;" fill="rgb(0, 0, 0)" stroke="rgb(204, 204, 204)" stroke-width="1px"></line><line x1="153.3409090909091" y1="0" x2="153.3409090909091" y2="5" style="visibility: inherit;" fill="rgb(0, 0, 0)" stroke="rgb(204, 204, 204)" stroke-width="1px"></line><line x1="178.89772727272728" y1="0" x2="178.89772727272728" y2="5" style="visibility: inherit;" fill="rgb(0, 0, 0)" stroke="rgb(204, 204, 204)" stroke-width="1px"></line><line x1="204.45454545454547" y1="0" x2="204.45454545454547" y2="5" style="visibility: inherit;" fill="rgb(0, 0, 0)" stroke="rgb(204, 204, 204)" stroke-width="1px"></line><line x1="230.01136363636365" y1="0" x2="230.01136363636365" y2="5" style="visibility: inherit;" fill="rgb(0, 0, 0)" stroke="rgb(204, 204, 204)" stroke-width="1px"></line><line x1="255.5681818181818" y1="0" x2="255.5681818181818" y2="5" style="visibility: inherit;" fill="rgb(0, 0, 0)" stroke="rgb(204, 204, 204)" stroke-width="1px"></line><line x1="281.125" y1="0" x2="281.125" y2="5" style="visibility: inherit;" fill="rgb(0, 0, 0)" stroke="rgb(204, 204, 204)" stroke-width="1px"></line></g><g transform="translate(0, 8)"><text x="0" y="0" dx="0em" dy="0.95em" style="text-anchor: middle; visibility: hidden; font-family: &quot;Helvetica Neue&quot;, sans-serif; font-size: 12px; font-weight: 200;" fill="rgb(50, 49, 63)" stroke="none" stroke-width="1px">-1</text><text x="25.556818181818183" y="0" dx="0em" dy="0.95em" style="text-anchor: middle; visibility: inherit; font-family: &quot;Helvetica Neue&quot;, sans-serif; font-size: 12px; font-weight: 200;" fill="rgb(50, 49, 63)" stroke="none" stroke-width="1px">0</text><text x="51.11363636363637" y="0" dx="0em" dy="0.95em" style="text-anchor: middle; visibility: inherit; font-family: &quot;Helvetica Neue&quot;, sans-serif; font-size: 12px; font-weight: 200;" fill="rgb(50, 49, 63)" stroke="none" stroke-width="1px">1</text><text x="76.67045454545455" y="0" dx="0em" dy="0.95em" style="text-anchor: middle; visibility: inherit; font-family: &quot;Helvetica Neue&quot;, sans-serif; font-size: 12px; font-weight: 200;" fill="rgb(50, 49, 63)" stroke="none" stroke-width="1px">2</text><text x="102.22727272727273" y="0" dx="0em" dy="0.95em" style="text-anchor: middle; visibility: inherit; font-family: &quot;Helvetica Neue&quot;, sans-serif; font-size: 12px; font-weight: 200;" fill="rgb(50, 49, 63)" stroke="none" stroke-width="1px">3</text><text x="127.7840909090909" y="0" dx="0em" dy="0.95em" style="text-anchor: middle; visibility: inherit; font-family: &quot;Helvetica Neue&quot;, sans-serif; font-size: 12px; font-weight: 200;" fill="rgb(50, 49, 63)" stroke="none" stroke-width="1px">4</text><text x="153.3409090909091" y="0" dx="0em" dy="0.95em" style="text-anchor: middle; visibility: inherit; font-family: &quot;Helvetica Neue&quot;, sans-serif; font-size: 12px; font-weight: 200;" fill="rgb(50, 49, 63)" stroke="none" stroke-width="1px">5</text><text x="178.89772727272728" y="0" dx="0em" dy="0.95em" style="text-anchor: middle; visibility: inherit; font-family: &quot;Helvetica Neue&quot;, sans-serif; font-size: 12px; font-weight: 200;" fill="rgb(50, 49, 63)" stroke="none" stroke-width="1px">6</text><text x="204.45454545454547" y="0" dx="0em" dy="0.95em" style="text-anchor: middle; visibility: inherit; font-family: &quot;Helvetica Neue&quot;, sans-serif; font-size: 12px; font-weight: 200;" fill="rgb(50, 49, 63)" stroke="none" stroke-width="1px">7</text><text x="230.01136363636365" y="0" dx="0em" dy="0.95em" style="text-anchor: middle; visibility: inherit; font-family: &quot;Helvetica Neue&quot;, sans-serif; font-size: 12px; font-weight: 200;" fill="rgb(50, 49, 63)" stroke="none" stroke-width="1px">8</text><text x="255.5681818181818" y="0" dx="0em" dy="0.95em" style="text-anchor: middle; visibility: inherit; font-family: &quot;Helvetica Neue&quot;, sans-serif; font-size: 12px; font-weight: 200;" fill="rgb(50, 49, 63)" stroke="none" stroke-width="1px">9</text><text x="281.125" y="0" dx="0em" dy="0.95em" style="text-anchor: middle; visibility: hidden; font-family: &quot;Helvetica Neue&quot;, sans-serif; font-size: 12px; font-weight: 200;" fill="rgb(50, 49, 63)" stroke="none" stroke-width="1px">10</text></g><line x1="0" y1="0" x2="281.125" y2="0" fill="rgb(0, 0, 0)" stroke="rgb(204, 204, 204)" stroke-width="1px"></line></g></g></g></g></svg>